<svg width="735" height="733" viewBox="0 0 735 733" fill="none" xmlns="http://www.w3.org/2000/svg">
<path d="M168.512 705.965C191.214 675.047 202.183 647.122 206.743 617.249C209.906 596.609 210.132 574.613 209.073 549.921L221.468 550.556V550.486C229.53 551.065 237.789 551.319 245.878 551.728L246.626 551.756C247.615 577.267 247.219 600.435 243.774 622.953C238.297 658.755 225.365 691.932 198.696 728.257L168.512 705.965Z" fill="#8339EC"/>
<path d="M629.925 202.496L548.945 121.516L556.018 87.8594L661.789 193.63C677.615 187.743 693.003 179.583 707.784 168.373L730.5 198.148C674.043 240.939 614.183 246.544 553.59 245.061C553.123 237.644 552.609 230.204 552.09 222.706L551.952 220.708C551.627 216.204 551.331 211.8 551.049 207.465C577.816 208.2 604.301 207.522 629.925 202.496Z" fill="#8339EC"/>
<path fill-rule="evenodd" clip-rule="evenodd" d="M186.16 615.159L102.3 531.3C141.045 523.113 181.837 525.214 222.671 527.317L222.697 527.319C230.193 527.714 237.704 528.095 246.852 528.49C285.478 530.142 324.077 530.114 362.322 520.598C401.357 510.885 439.066 491.488 474.304 454.428C507.326 419.698 522.446 381.947 528.531 341.923C534.375 303.382 531.665 263.598 528.771 222.388C525.862 180.868 524.013 146.829 528.742 115.869C533.317 86.01 544.286 58.085 566.973 27.167L536.804 4.86084C510.135 41.186 497.203 74.3769 491.726 110.166C486.417 144.853 488.351 181.079 491.443 225.085C494.182 264.064 496.751 301.688 491.5 336.22C486.516 369.001 474.318 399.807 447.904 427.887L377.442 357.425L356.477 377.183L426.84 447.539C408.007 462.871 388.538 473.092 368.604 479.798L268.198 379.406L261.139 413.077L335.921 487.859C307.615 492.56 278.123 492.32 248.405 491.05C241.6 490.753 233.13 490.316 224.659 489.878L224.633 489.877C149.591 486.009 74.6774 482.148 5 534.984L27.7156 564.745C41.6075 554.213 56.0218 546.378 70.8596 540.589L179.087 648.816L186.16 615.159Z" fill="#3B86FF"/>
<path d="M244 396.912C248.885 364.738 260.716 334.469 286.114 306.827L356.477 377.183L377.442 357.425L306.98 286.963C326.208 270.967 346.129 260.365 366.515 253.447L468.459 355.392L475.532 321.735L399.141 245.344C421.913 241.504 445.461 240.911 469.278 241.475C468.953 236.591 468.615 231.692 468.262 226.765C467.711 218.929 467.203 211.334 466.765 203.936C435.452 203.343 404.195 204.811 373.178 212.534C334.143 222.247 296.434 241.645 261.196 278.704C228.174 313.42 213.04 351.185 206.969 391.209C203.285 415.477 202.988 440.254 204.005 465.567C210.781 465.873 217.543 466.219 224.318 466.566L224.659 466.584C225.506 466.584 226.325 466.626 227.144 466.711L241.558 467.445C240.485 442.951 240.598 419.289 244 396.912Z" fill="#FF006E"/>
<path d="M547.884 122.577L626.859 201.551C602.257 206.066 576.843 206.672 551.09 205.966L549.445 205.921L549.552 207.563C549.834 211.898 550.131 216.305 550.456 220.811C550.456 220.813 550.456 220.814 550.456 220.816L550.594 222.81L550.596 222.848C551.114 230.333 551.627 237.756 552.093 245.155L552.179 246.527L553.553 246.561C614.261 248.046 674.541 242.443 731.406 199.343L732.605 198.434L731.693 197.238L708.977 167.463L708.07 166.274L706.878 167.178C692.5 178.082 677.546 186.075 662.166 191.886L557.079 86.7988L555.12 84.8399L554.55 87.5509L547.477 121.208L547.31 122.003L547.884 122.577ZM224.736 488.38L224.734 488.38L224.72 488.379L224.71 488.379L224.708 488.379L224.531 488.37C149.607 484.508 74.2077 480.621 4.09366 533.789L2.89467 534.698L3.80765 535.895L26.5232 565.655L27.4303 566.843L28.6218 565.94C42.114 555.711 56.1003 548.049 70.4939 542.345L178.026 649.877L179.985 651.836L180.555 649.125L187.628 615.468L187.795 614.673L187.22 614.099L105.331 532.21C143.04 524.726 182.682 526.76 222.594 528.815L222.596 528.815L222.61 528.816L222.618 528.816C230.117 529.212 237.632 529.593 246.787 529.989L246.788 529.989C285.442 531.642 324.219 531.624 362.684 522.054C401.98 512.276 439.945 492.74 475.391 455.462C508.657 420.476 523.89 382.427 530.014 342.149C535.888 303.415 533.159 263.463 530.267 222.283C527.357 180.738 525.525 146.865 530.225 116.096C534.761 86.4894 545.63 58.7888 568.183 28.0544L569.067 26.8494L567.865 25.9608L537.695 3.6547L536.485 2.75994L535.595 3.97314C508.788 40.4864 495.758 73.9027 490.243 109.939C484.906 144.815 486.856 181.202 489.947 225.19C492.688 264.205 495.239 301.657 490.017 335.994L491.5 336.22L490.017 335.994C485.137 368.09 473.308 398.211 447.866 425.728L378.503 356.364L309.208 287.069C327.618 272.006 346.651 261.881 366.115 255.169L467.399 356.453L469.358 358.411L469.927 355.7L477 322.044L477.167 321.249L476.593 320.674L402.273 246.355C424.014 242.957 446.475 242.435 469.243 242.975L470.884 243.014L470.775 241.376C470.45 236.489 470.111 231.588 469.758 226.659C469.208 218.827 468.7 211.238 468.263 203.847L468.181 202.463L466.794 202.436C435.421 201.842 404.016 203.31 372.816 211.078C333.52 220.856 295.555 240.392 260.109 277.67C226.844 312.642 211.596 350.705 205.486 390.984C201.781 415.386 201.488 440.269 202.506 465.627L202.561 467.004L203.937 467.066C210.708 467.371 217.465 467.717 224.242 468.064L224.582 468.082L224.62 468.084H224.659C225.455 468.084 226.222 468.124 226.989 468.203L227.028 468.207L227.067 468.209L241.482 468.943L243.129 469.027L243.057 467.379C241.985 442.922 242.102 419.373 245.483 397.138L245.483 397.138C250.263 365.652 261.728 336.07 286.165 308.999L355.416 378.243L424.6 447.42C406.592 461.833 388.014 471.579 369.005 478.078L269.259 378.345L267.299 376.386L266.73 379.098L259.671 412.769L259.505 413.564L260.079 414.138L332.783 486.842C305.521 491.037 277.152 490.778 248.469 489.551C241.672 489.255 233.209 488.818 224.736 488.38ZM167.303 705.077L166.418 706.283L167.621 707.172L197.805 729.464L199.015 730.358L199.905 729.145C226.712 692.632 239.742 659.23 245.257 623.179C248.722 600.528 249.115 577.255 248.125 551.698L248.071 550.31L246.683 550.258L245.954 550.23C245.952 550.23 245.95 550.23 245.949 550.23C243.275 550.095 240.594 549.977 237.914 549.859C232.442 549.618 226.973 549.377 221.576 548.99L219.968 548.874V548.978L209.15 548.423L207.504 548.339L207.574 549.985C208.631 574.639 208.402 596.523 205.261 617.022L205.261 617.023C200.739 646.643 189.87 674.343 167.303 705.077Z" stroke="white" stroke-width="3"/>
<path d="M440.84 278.443L440.84 278.443C437.648 275.716 433.425 274.52 429.268 275.175L429.268 275.176L323.313 291.905C316.332 293.007 311.189 299.026 311.189 306.094V339.553V386.53H300.459C279.198 386.531 261 402.495 261 423.201C261 443.908 279.198 459.873 300.459 459.873C321.72 459.873 339.919 443.908 339.919 423.201V400.895V351.828L417.144 339.634V372.589H406.414C385.153 372.589 366.955 388.554 366.955 409.26C366.955 429.967 385.153 445.931 406.414 445.931C427.675 445.931 445.873 429.966 445.873 409.26V386.954V322.824V289.364C445.873 285.163 444.033 281.172 440.84 278.443Z" fill="#0C0628" stroke="white" stroke-width="12"/>
</svg>
